<svg aria-hidden="true" style="position: absolute; width: 0; height: 0; overflow: hidden;" version="1.1" xmlns="http://www.w3.org/2000/svg" xmlns:xlink="http://www.w3.org/1999/xlink">
<defs>
<symbol fill="none" xmlns="http://www.w3.org/2000/svg" viewBox="0 0 24 24" id="icon-film">
  <path d="M19.82 2H4.18A2.18 2.18 0 002 4.18v15.64A2.18 2.18 0 004.18 22h15.64A2.18 2.18 0 0022 19.82V4.18A2.18 2.18 0 0019.82 2zM7 2v20M17 2v20M2 12h20M2 7h5M2 17h5m10 0h5M17 7h5" stroke-width="2" stroke-linecap="round" stroke-linejoin="round"></path>
</symbol>
<symbol fill="none" xmlns="http://www.w3.org/2000/svg" viewBox="0 0 12 12" id="icon-search">
  <path d="M5.5 9.5a4 4 0 100-8 4 4 0 000 8zm5 1L8.325 8.325" stroke-linecap="round" stroke-linejoin="round"></path>
</symbol>
<symbol id="icon-favorite" viewBox="0 0 32 32">
  <path d="M16 30.144l-2.24-2.218c-8.32-7.287-13.76-12.198-13.76-18.218 0-4.911 3.84-8.713 8.8-8.713 2.72 0 5.44 1.267 7.2 3.327 1.76-2.059 4.48-3.327 7.2-3.327 4.96 0 8.8 3.802 8.8 8.713 0 6.020-5.44 10.931-13.76 18.218l-2.24 2.218z"></path>
</symbol>
<symbol id="modal-close-btn" width="30" height="30" viewBox="0 0 30 30" xmlns="http://www.w3.org/2000/svg">
  <path d="M8 8L22 22" stroke="black" stroke-width="2"/>
  <path d="M8 22L22 8" stroke="black" stroke-width="2"/>
</symbol>
<symbol id="modal-close-btn-full" width="14" height="14" viewBox="0 0 14 14" xmlns="http://www.w3.org/2000/svg">
  <path d="M0 0L14 14" stroke="black" stroke-width="2"/>
  <path d="M0 14L14 0" stroke="black" stroke-width="2"/>
</symbol>
<symbol id="icon-login" viewBox="0 0 32 32"><path d="M16 16a8 8 0 000-16 8 8 0 000 16zm0 4c-5.339 0-16 2.68-16 8v2c0 1.099.901 2 2 2h28c1.099 0 2-.901 2-2v-2c0-5.32-10.661-8-16-8z"/></symbol>
<symbol id="icon-exit" viewBox="0 0 32 32">
  <path   d="M17.6 31.2h13.867v-30.933h-13.867v8z"></path>
  <path   d="M18.526 15.644c-0.32-0.655-1.11-0.928-1.766-0.608-0.005 0.002-0.009 0.005-0.014 0.007l-2.352 1.191-0.151 0.012-1.327-2.24c1.725 0.015 3.136-1.371 3.151-3.096s-1.371-3.136-3.096-3.151-3.136 1.371-3.151 3.096c-0.007 0.811 0.301 1.593 0.86 2.181l-0.86-0.373-4.457 1.881c-0.405 0.159-0.707 0.506-0.811 0.929l-0.885 3.584c-0.18 0.716 0.251 1.444 0.965 1.63 0.71 0.177 1.429-0.255 1.606-0.965 0.001-0.004 0.002-0.009 0.003-0.013l0.717-2.907 2.418-1.003-0.884 4.928-3.156 3.537-2.604-2.308c-0.542-0.483-1.373-0.435-1.855 0.107-0.006 0.006-0.011 0.013-0.017 0.019-0.483 0.56-0.427 1.404 0.125 1.897l3.538 3.136c0.524 0.467 1.322 0.44 1.813-0.061l3.689-3.738 3.203 1.947 2.038 4.13c0.222 0.454 0.682 0.742 1.188 0.743 0.206-0 0.409-0.049 0.593-0.142 0.657-0.338 0.921-1.141 0.594-1.803l-2.212-4.48c-0.112-0.228-0.287-0.419-0.504-0.551l-3.603-2.187 0.751-3.423 0.54 1.094c0.222 0.454 0.683 0.742 1.188 0.743 0.206-0 0.409-0.049 0.593-0.142l3.538-1.792c0.659-0.338 0.923-1.143 0.594-1.806v0z"></path>
  <path  d="M28.226 16.47c0.054-0.13 0.054-0.277 0-0.407-0.027-0.065-0.066-0.124-0.116-0.174l-2.133-2.133c-0.212-0.205-0.549-0.199-0.754 0.013-0.2 0.207-0.2 0.534 0 0.741l1.223 1.223h-5.646c-0.295 0-0.533 0.239-0.533 0.533s0.239 0.533 0.533 0.533h5.646l-1.223 1.223c-0.212 0.205-0.218 0.542-0.013 0.754s0.542 0.218 0.754 0.013c0.004-0.004 0.009-0.009 0.013-0.013l2.133-2.133c0.050-0.050 0.089-0.108 0.115-0.173z"></path>
  <path   d="M31.467 31.733h-30.933c-0.295 0-0.533-0.239-0.533-0.533s0.239-0.533 0.533-0.533h30.933c0.295 0 0.533 0.239 0.533 0.533s-0.239 0.533-0.533 0.533z"></path>
</symbol>
<symbol id="arrow-right" viewBox="0 0 16 16" fill="none" xmlns="http://www.w3.org/2000/svg">
  <path d="M3.33329 8H12.6666" stroke="black" stroke-width="1.33333" stroke-linecap="round" stroke-linejoin="round"/>
  <path d="M7.99996 12.6667L12.6666 8.00004L7.99996 3.33337" stroke="black" stroke-width="1.33333" stroke-linecap="round" stroke-linejoin="round"/>
</symbol>
<symbol id="arrow-left" viewBox="0 0 16 16" fill="none" xmlns="http://www.w3.org/2000/svg">
  <path d="M12.6667 8H3.33337" stroke="black" stroke-width="1.33333" stroke-linecap="round" stroke-linejoin="round"/>
  <path d="M8.00004 12.6667L3.33337 8.00004L8.00004 3.33337" stroke="black" stroke-width="1.33333" stroke-linecap="round" stroke-linejoin="round"/>
</symbol>
<symbol id="seruce" viewBox="0 0 34 32">
<path fill="#ff6b08" style="fill: var(--color1, #ff6b08)" d="M17.231 31.705l-2.412-2.412c-8.96-7.926-14.818-13.268-14.818-19.815 0-5.342 4.135-9.477 9.477-9.477 2.929 0 5.858 1.378 7.754 3.618 1.895-2.24 4.825-3.618 7.754-3.618 5.342 0 9.477 4.135 9.477 9.477 0 6.548-5.858 11.889-14.818 19.815l-2.412 2.412z"></path>
</symbol>
</defs>
</svg>
